<svg xmlns="http://www.w3.org/2000/svg" width="900" height="460" viewBox="0 0 900 460">
<rect width="100%" height="100%" fill="white"/>
<text x="450.0" y="34" text-anchor="middle" font-family="Arial" font-size="22" font-weight="700">Scalar Failure and Component Diagnostic Recovery</text>
<line x1="90" y1="360" x2="810" y2="360" stroke="#222"/>
<line x1="90" y1="60" x2="90" y2="360" stroke="#222"/>
<line x1="90" y1="360.0" x2="810" y2="360.0" stroke="#ddd"/>
<text x="78" y="364.0" text-anchor="end" font-family="Arial" font-size="12">0.0</text>
<line x1="90" y1="210.0" x2="810" y2="210.0" stroke="#ddd"/>
<text x="78" y="214.0" text-anchor="end" font-family="Arial" font-size="12">0.5</text>
<line x1="90" y1="150.0" x2="810" y2="150.0" stroke="#ddd"/>
<text x="78" y="154.0" text-anchor="end" font-family="Arial" font-size="12">0.7</text>
<line x1="90" y1="60.0" x2="810" y2="60.0" stroke="#ddd"/>
<text x="78" y="64.0" text-anchor="end" font-family="Arial" font-size="12">1.0</text>
<text x="270.0" y="394" text-anchor="middle" font-family="Arial" font-size="13">CBraMod frozen</text>
<rect x="135.0" y="300.9" width="73.8" height="59.1" fill="#b94a48"/>
<text x="171.9" y="295.9" text-anchor="middle" font-family="Arial" font-size="11">0.197</text>
<rect x="225.0" y="108.1" width="73.8" height="251.9" fill="#4f81bd"/>
<text x="261.9" y="103.1" text-anchor="middle" font-family="Arial" font-size="11">0.840</text>
<rect x="315.0" y="89.3" width="73.8" height="270.7" fill="#5f9e6e"/>
<text x="351.9" y="84.3" text-anchor="middle" font-family="Arial" font-size="11">0.902</text>
<text x="630.0" y="394" text-anchor="middle" font-family="Arial" font-size="13">ST-EEGFormer-small</text>
<rect x="495.0" y="310.1" width="73.8" height="49.9" fill="#b94a48"/>
<text x="531.9" y="305.1" text-anchor="middle" font-family="Arial" font-size="11">0.166</text>
<rect x="585.0" y="108.1" width="73.8" height="251.9" fill="#4f81bd"/>
<text x="621.9" y="103.1" text-anchor="middle" font-family="Arial" font-size="11">0.840</text>
<rect x="675.0" y="89.3" width="73.8" height="270.7" fill="#5f9e6e"/>
<text x="711.9" y="84.3" text-anchor="middle" font-family="Arial" font-size="11">0.902</text>
<rect x="90" y="424" width="16" height="16" fill="#b94a48"/>
<text x="114" y="437" font-family="Arial" font-size="13">current scalar SAS</text>
<rect x="320" y="424" width="16" height="16" fill="#4f81bd"/>
<text x="344" y="437" font-family="Arial" font-size="13">component-gated v1</text>
<rect x="550" y="424" width="16" height="16" fill="#5f9e6e"/>
<text x="574" y="437" font-family="Arial" font-size="13">artifact-gate physio</text>
</svg>